<svg id="visual" viewBox="0 0 960 540" width="960" height="540" xmlns="http://www.w3.org/2000/svg" xmlns:xlink="http://www.w3.org/1999/xlink" version="1.1"><rect x="0" y="0" width="960" height="540" fill="#ffffff"></rect><defs><linearGradient id="grad1_0" x1="43.8%" y1="0%" x2="100%" y2="100%"><stop offset="14.444444444444446%" stop-color="#ffffff" stop-opacity="1"></stop><stop offset="85.55555555555554%" stop-color="#ffffff" stop-opacity="1"></stop></linearGradient></defs><defs><linearGradient id="grad2_0" x1="0%" y1="0%" x2="56.3%" y2="100%"><stop offset="14.444444444444446%" stop-color="#ffffff" stop-opacity="1"></stop><stop offset="85.55555555555554%" stop-color="#ffffff" stop-opacity="1"></stop></linearGradient></defs><g transform="translate(960, 0)"><path d="M0 405C-40.2 393.1 -80.4 381.3 -118.7 365.2C-156.9 349.1 -193.3 328.8 -218.7 301C-244 273.1 -258.2 237.8 -288 209.3C-317.8 180.7 -363.1 158.9 -385.2 125.2C-407.3 91.4 -406.1 45.7 -405 0L0 0Z" fill="#54fa3c"></path></g><g transform="translate(0, 540)"><path d="M0 -405C43.7 -395.5 87.4 -385.9 117.4 -361.4C147.5 -336.9 164 -297.4 202.8 -279.1C241.6 -260.9 302.7 -263.9 327.7 -238.1C352.6 -212.2 341.2 -157.6 348.1 -113.1C354.9 -68.6 380 -34.3 405 0L0 0Z" fill="#54fa3c"></path></g></svg>