<svg id="visual" viewBox="0 0 960 540" width="960" height="540" xmlns="http://www.w3.org/2000/svg" xmlns:xlink="http://www.w3.org/1999/xlink" version="1.1"><rect x="0" y="0" width="960" height="540" fill="#ffffff"></rect><defs><linearGradient id="grad1_0" x1="43.8%" y1="100%" x2="100%" y2="0%"><stop offset="14.444444444444446%" stop-color="#ffffff" stop-opacity="1"></stop><stop offset="85.55555555555554%" stop-color="#ffffff" stop-opacity="1"></stop></linearGradient></defs><defs><linearGradient id="grad2_0" x1="0%" y1="100%" x2="56.3%" y2="0%"><stop offset="14.444444444444446%" stop-color="#ffffff" stop-opacity="1"></stop><stop offset="85.55555555555554%" stop-color="#ffffff" stop-opacity="1"></stop></linearGradient></defs><g transform="translate(960, 540)"><path d="M-405 0C-376.1 -35 -347.2 -70 -336.7 -109.4C-326.2 -148.8 -334.1 -192.7 -322 -233.9C-309.9 -275.2 -277.7 -313.8 -238.1 -327.7C-198.4 -341.5 -151.2 -330.8 -110.3 -339.5C-69.4 -348.3 -34.7 -376.7 0 -405L0 0Z" fill="#54fa3c"></path></g><g transform="translate(0, 0)"><path d="M405 0C407.4 47.1 409.8 94.2 385.2 125.2C360.5 156.1 308.8 171.1 283.2 205.7C257.5 240.4 257.8 294.8 232.8 320.4C207.7 345.9 157.4 342.6 114.3 351.9C71.3 361.2 35.7 383.1 0 405L0 0Z" fill="#54fa3c"></path></g></svg>